<mxfile host="app.diagrams.net" modified="2022-11-15T14:07:25.188Z" agent="5.0 (Macintosh)" etag="wle0uG_FDNfa3U7t5TLa" version="20.5.3" type="github">
  <diagram id="bvM2O6zYVAfy2EAc9lAI" name="第 1 页">
    <mxGraphModel dx="674" dy="790" grid="1" gridSize="10" guides="1" tooltips="1" connect="1" arrows="1" fold="1" page="1" pageScale="1" pageWidth="827" pageHeight="1169" math="1" shadow="0">
      <root>
        <mxCell id="0" />
        <mxCell id="1" parent="0" />
        <mxCell id="sVxv38cH_FCJ9H6od-_0-1" value="初始化" style="ellipse;whiteSpace=wrap;html=1;aspect=fixed;" parent="1" vertex="1">
          <mxGeometry x="290" y="80" width="80" height="80" as="geometry" />
        </mxCell>
        <mxCell id="sVxv38cH_FCJ9H6od-_0-2" value="当前站点\(p^{cur}\)" style="rounded=1;whiteSpace=wrap;html=1;" parent="1" vertex="1">
          <mxGeometry x="270" y="200" width="120" height="60" as="geometry" />
        </mxCell>
        <mxCell id="sVxv38cH_FCJ9H6od-_0-3" value="&lt;div&gt;路段池\(R=\{r_1,r_2,\dots,r_n\}\)&lt;/div&gt;" style="text;html=1;align=left;verticalAlign=middle;resizable=0;points=[];autosize=1;strokeColor=none;fillColor=none;" parent="1" vertex="1">
          <mxGeometry x="390" y="90" width="190" height="30" as="geometry" />
        </mxCell>
        <mxCell id="sVxv38cH_FCJ9H6od-_0-4" value="&lt;div&gt;站点池\(P=\{p_1,p_2,\dots,p_m\}\)&lt;/div&gt;" style="text;whiteSpace=wrap;html=1;align=left;verticalAlign=middle;" parent="1" vertex="1">
          <mxGeometry x="390" y="120" width="210" height="30" as="geometry" />
        </mxCell>
        <mxCell id="sVxv38cH_FCJ9H6od-_0-8" value="遍历下一个可能的站点\(p^{cur}\in \complement_{P}\{p^{now}\}\)" style="rounded=1;whiteSpace=wrap;html=1;" parent="1" vertex="1">
          <mxGeometry x="230" y="290" width="200" height="60" as="geometry" />
        </mxCell>
        <mxCell id="sVxv38cH_FCJ9H6od-_0-10" value="形成订单集合\(\{p^{now}p^{next}_1,p^{now}p^{next}_2,\dots\}\)" style="rounded=1;whiteSpace=wrap;html=1;" parent="1" vertex="1">
          <mxGeometry x="280" y="600" width="200" height="60" as="geometry" />
        </mxCell>
        <mxCell id="sVxv38cH_FCJ9H6od-_0-11" value="形成订单集合\(\{p^{now}p^{next}_1,p^{now}p^{next}_2,\dots\}\)" style="rounded=1;whiteSpace=wrap;html=1;" parent="1" vertex="1">
          <mxGeometry x="230" y="480" width="200" height="60" as="geometry" />
        </mxCell>
        <mxCell id="H3HawUOWs4ybG82ycnrm-1" value="订单集合\(\{p^{cur}p^{next}_1,p^{cur}p^{next}_2,\dots,p^{cur}p^{next}_{m-1}\}\)" style="text;whiteSpace=wrap;html=1;align=center;verticalAlign=middle;" vertex="1" parent="1">
          <mxGeometry x="440" y="300" width="260" height="40" as="geometry" />
        </mxCell>
        <mxCell id="H3HawUOWs4ybG82ycnrm-2" value="订单排序" style="rounded=1;whiteSpace=wrap;html=1;" vertex="1" parent="1">
          <mxGeometry x="230" y="390" width="200" height="60" as="geometry" />
        </mxCell>
      </root>
    </mxGraphModel>
  </diagram>
</mxfile>
